<?xml version="1.0" encoding="UTF-8" standalone="no"?>
<!-- Created with Inkscape (http://www.inkscape.org/) -->

<svg
   xmlns:dc="http://purl.org/dc/elements/1.1/"
   xmlns:cc="http://creativecommons.org/ns#"
   xmlns:rdf="http://www.w3.org/1999/02/22-rdf-syntax-ns#"
   xmlns:svg="http://www.w3.org/2000/svg"
   xmlns="http://www.w3.org/2000/svg"
   xmlns:sodipodi="http://sodipodi.sourceforge.net/DTD/sodipodi-0.dtd"
   xmlns:inkscape="http://www.inkscape.org/namespaces/inkscape"
   width="131.31105"
   height="131.68726"
   id="svg3447"
   version="1.1"
   inkscape:version="0.48.4 r9939"
   sodipodi:docname="LOGO3.SVG.svg">
  <defs
     id="defs3449" />
  <sodipodi:namedview
     id="base"
     pagecolor="#ffffff"
     bordercolor="#666666"
     borderopacity="1.0"
     inkscape:pageopacity="0.0"
     inkscape:pageshadow="2"
     inkscape:zoom="2.8"
     inkscape:cx="33.765602"
     inkscape:cy="74.446667"
     inkscape:document-units="px"
     inkscape:current-layer="layer1"
     showgrid="false"
     fit-margin-top="3"
     fit-margin-right="3"
     fit-margin-bottom="3"
     fit-margin-left="3"
     inkscape:window-width="1551"
     inkscape:window-height="876"
     inkscape:window-x="1415"
     inkscape:window-y="24"
     inkscape:window-maximized="1" />
  <metadata
     id="metadata3452">
    <rdf:RDF>
      <cc:Work
         rdf:about="">
        <dc:format>image/svg+xml</dc:format>
        <dc:type
           rdf:resource="http://purl.org/dc/dcmitype/StillImage" />
        <dc:title></dc:title>
      </cc:Work>
    </rdf:RDF>
  </metadata>
  <g
     inkscape:label="Layer 1"
     inkscape:groupmode="layer"
     id="layer1"
     transform="translate(-309.34448,-466.51856)">
    <g
       id="g8244"
       transform="matrix(0.0182631,0,0,0.0182631,370.10551,525.36699)"
       style="fill:#000000;fill-opacity:1">
      <path
         inkscape:connector-curvature="0"
         style="fill:#000000;fill-opacity:1;stroke:none"
         d="m 249.6473,-2160.5799 c -1427.8534,0 -2585.3751,1157.5217 -2585.3751,2585.3751 0,1427.8533 1157.5217,2585.3437 2585.3751,2585.3437 1427.8533,0 2585.3437,-1157.4904 2585.3437,-2585.3437 0,-1427.8534 -1157.4904,-2585.3751 -2585.3437,-2585.3751 z m 0,237.5 c 1296.6857,0 2347.8437,1051.1893 2347.8437,2347.8751 0,1296.6857 -1051.158,2347.8437 -2347.8437,2347.8437 -1296.6858,0 -2347.8751,-1051.158 -2347.8751,-2347.8437 0,-1296.6858 1051.1893,-2347.8751 2347.8751,-2347.8751 z"
         id="path8246" />
      <path
         inkscape:connector-curvature="0"
         style="fill:#000000;fill-opacity:1;stroke:none"
         d="m -31.634,-2071.2361 0,888.4687 -1430.0625,0 0,123.75 0,563.25 123.75,0 3298.8125,0 0,-123.7187 0,-444.5625 0,-118.7188 -1433.5,0 0,-888.4687 -123.75,0 0,1012.8437 123.75,0 0,-0.625 1309.75,0 0,439.5313 -3175.0625,0 0,-439.5313 1306.3125,0 123.75,0 0,-1012.2187 -123.75,0 z"
         id="path8248" />
      <path
         inkscape:connector-curvature="0"
         d="m 1151.8701,1062.4116 242.6332,-1514.77348 960.2065,0 -64.7047,359.09333 -585.1162,-23.14 -52.8176,381.49875 557.68,77.13021 -62.4304,336.43767 -540.5921,-83.40163 -57.1049,425.86815 469.4393,296.905 -60.4569,311.9978 z m -2873.2762,64.2161 183.4775,-329.48625 c 0,0 401.4986,271.67695 487.6462,141.1075 86.1476,-130.56945 -513.9653,-352.21572 -672.935,-468.6375 -145.2923,-121.15122 -205.1941,-293.10507 -163.13,-455.35125 63.5488,-234.48802 223.7132,-380.13575 528.5658,-389.9036 304.8525,-9.76785 523.9742,272.57722 523.9742,272.57722 l -213.75,330.04138 c 0,0 -376.5496,-370.65072 -465.7057,-177.275 -89.1562,193.37572 1117.60049,440.70432 822.27195,965.4238 -295.32854,524.7195 -1030.41495,111.5037 -1030.41495,111.5037 z M -457.94865,979.0752 -770.9224,-391.33605 c 0,0 968.47354,-259.22178 1107.67625,275.76987 139.20271,534.99165 -499.33125,675.60263 -499.33125,675.60263 l 74.63375,326.5425 z M -62.821733,-5.4248609 C -108.3939,-126.37544 -306.62506,-77.539229 -306.62506,-77.539229 l 60.45698,267.136419 c 0,0 228.918519,-74.07147 183.346347,-195.0220509 z M 814.9226,956.3302 C 590.47468,968.47023 344.53635,644.19145 344.53635,644.19145 l 232.66125,-182.72 c 0,0 171.69632,270.9019 236.88854,185.13896 65.19223,-85.76294 -457.93648,-495.93545 -381.78104,-822.22271 50.07316,-118.48929 148.46946,-248.29021 286.5775,-253.13 11.48875,0 36.37274,0.914 36.37274,0.914 l -18.90708,-24.53358 175.88809,0.86458 31.09875,40.7725 27.78875,-41.085 195.87375,2.31 -129.6,141.01125 c 89.1882,67.22215 137.2478,128.63566 176.1842,195.47868 L 1000.3114,62.108732 c 0,0 -151.05755,-249.281082 -242.45092,-165.174912 -91.39338,84.106176 420.41542,527.8457 394.94122,754.16166 -25.4741,226.31596 -113.4312,293.09469 -337.8791,305.23472 z"
         style="fill:#000000;fill-opacity:1;fill-rule:nonzero;stroke:none"
         id="path8250"
         sodipodi:nodetypes="ccccccccccccccczcczcczzccczccczcczzcczccccccccccczzz" />
      <g
         inkscape:transform-center-x="-106.87725"
         inkscape:transform-center-y="-899.75868"
         style="font-size:380px;font-style:normal;font-variant:normal;font-weight:normal;font-stretch:normal;line-height:125%;letter-spacing:0px;word-spacing:0px;fill:#000000;fill-opacity:1;stroke:#ffffff;stroke-width:7;stroke-linecap:round;stroke-linejoin:round;stroke-miterlimit:4;stroke-dasharray:none;font-family:Source Sans Pro;-inkscape-font-specification:Source Sans Pro"
         id="g8252">
        <path
           inkscape:connector-curvature="0"
           d="m -1035.3692,2246.8381 36.2872,-63.9178 -96.0941,-54.5543 22.4635,-39.5682 c 34.0655,-60.0044 33.3798,-127.6638 -33.1469,-165.4321 -68.7007,-39.0026 -119.4523,-2.2699 -154.2584,59.0389 l -58.7507,103.486 283.4994,160.9475 m -110.6803,-147.3538 -85.6585,-48.6298 20.2418,-35.6548 c 19.2545,-33.9156 40.4927,-46.0065 70.0601,-29.2206 29.5673,16.7859 35.5935,42.6304 15.5985,77.8504 l -20.2419,35.6548"
           style="font-size:500px;font-weight:bold;letter-spacing:-41.23999786000000256px;fill:#000000;fill-opacity:1;stroke:#ffffff;stroke-width:7;stroke-linecap:round;stroke-linejoin:round;stroke-miterlimit:4;stroke-dasharray:none;-inkscape-font-specification:Source Sans Pro Bold"
           id="path8254" />
        <path
           inkscape:connector-curvature="0"
           d="m -1058.8895,1791.2218 24.6587,-28.9127 c 24.9832,-29.2931 46.97997,-38.1332 71.3275,-17.3679 24.34754,20.7652 23.27453,47.4505 -1.70866,76.7436 l -24.65876,28.9127 -69.61878,-59.3757 m 323.90403,32.445 -147.31207,-28.3797 c 10.91865,-36.6883 2.6374,-73.98 -33.8839,-105.1279 -58.96668,-50.2909 -113.89116,-22.8762 -158.66616,29.6232 l -76.2475,89.4012 248.04072,211.5462 47.69523,-55.9233 -89.40119,-76.2475 26.28105,-30.8149 129.95835,28.6937 53.53547,-62.771"
           style="font-size:500px;font-weight:bold;letter-spacing:-41.23999786000000256px;fill:#000000;fill-opacity:1;stroke:#ffffff;stroke-width:7;stroke-linecap:round;stroke-linejoin:round;stroke-miterlimit:4;stroke-dasharray:none;-inkscape-font-specification:Source Sans Pro Bold"
           id="path8256" />
        <path
           inkscape:connector-curvature="0"
           d="m -761.85545,1676.1946 -12.68496,-28.3389 c -13.48313,-30.9104 -30.81929,-65.7775 -46.33894,-97.6112 l 1.55329,-1.2599 c 28.01933,21.0515 59.26179,45.2829 86.72454,64.8545 l 24.72296,18.5748 -53.97689,43.7807 m 166.20104,39.0187 60.57839,-49.1351 -284.57746,-188.933 -68.73317,55.7495 126.14167,317.4402 58.24845,-47.2453 -33.28722,-72.7888 77.27628,-62.6788 64.35306,47.5913"
           style="font-size:500px;font-weight:bold;letter-spacing:-41.23999786000000256px;fill:#000000;fill-opacity:1;stroke:#ffffff;stroke-width:7;stroke-linecap:round;stroke-linejoin:round;stroke-miterlimit:4;stroke-dasharray:none;-inkscape-font-specification:Source Sans Pro Bold"
           id="path8258" />
        <path
           inkscape:connector-curvature="0"
           d="m -538.53666,1670.3249 64.9456,-34.414 -63.67747,-120.1714 99.40653,-52.6744 63.67748,120.1714 65.38741,-34.648 -152.63866,-288.0581 -65.38741,34.6481 58.7612,110.8935 -99.40653,52.6744 -58.7612,-110.8935 -64.94561,34.4139 152.63866,288.0581"
           style="font-size:500px;font-weight:bold;letter-spacing:-41.23999786000000256px;fill:#000000;fill-opacity:1;stroke:#ffffff;stroke-width:7;stroke-linecap:round;stroke-linejoin:round;stroke-miterlimit:4;stroke-dasharray:none;-inkscape-font-specification:Source Sans Pro Bold"
           id="path8260" />
        <path
           inkscape:connector-curvature="0"
           d="m -247.69379,1387.982 -1.01337,-31.0318 c -0.77871,-33.7141 -3.62592,-72.549 -5.94006,-107.8886 l 1.91462,-0.5782 c 17.96522,30.0915 37.70993,64.3465 55.72021,92.8575 l 15.85167,26.5514 -66.53307,20.0897 m 139.06227,99.03 74.670213,-22.5468 -191.879773,-282.5989 -84.72197,25.5819 -3.41157,341.5675 71.79828,-21.6796 -3.25607,-79.9728 95.2524,-28.7616 41.54849,68.4103"
           style="font-size:500px;font-weight:bold;letter-spacing:-41.23999786000000256px;fill:#000000;fill-opacity:1;stroke:#ffffff;stroke-width:7;stroke-linecap:round;stroke-linejoin:round;stroke-miterlimit:4;stroke-dasharray:none;-inkscape-font-specification:Source Sans Pro Bold"
           id="path8262" />
        <path
           inkscape:connector-curvature="0"
           d="m 130.14542,1446.2919 223.48063,2.942 0.81612,-61.9947 -63.99445,-0.8424 c -14.99869,-0.1975 -37.02314,1.5128 -53.04806,3.302 52.2063,-53.3174 102.95233,-109.6544 103.65656,-163.1497 0.80296,-60.9947 -41.16689,-101.5507 -103.66141,-102.3734 -45.49601,-0.5989 -75.21731,16.0113 -107.15552,49.0937 l 39.47659,40.0232 c 16.22237,-16.7879 33.92493,-32.0563 56.92291,-31.7535 27.49759,0.362 44.77233,17.5909 44.36426,48.5882 -0.59234,44.996 -58.30489,98.7411 -140.30478,174.1682 l -0.55285,41.9964"
           style="font-size:500px;font-weight:bold;letter-spacing:-41.23999786000000256px;fill:#000000;fill-opacity:1;stroke:#ffffff;stroke-width:7;stroke-linecap:round;stroke-linejoin:round;stroke-miterlimit:4;stroke-dasharray:none;-inkscape-font-specification:Source Sans Pro Bold"
           id="path8264" />
        <path
           inkscape:connector-curvature="0"
           d="m 436.89133,1361.1106 120.90328,22.6141 9.56043,-51.1136 -120.90328,-22.6141 -9.56043,51.1136"
           style="font-size:500px;font-weight:bold;letter-spacing:-41.23999786000000256px;fill:#000000;fill-opacity:1;stroke:#ffffff;stroke-width:7;stroke-linecap:round;stroke-linejoin:round;stroke-miterlimit:4;stroke-dasharray:none;-inkscape-font-specification:Source Sans Pro Bold"
           id="path8266" />
        <path
           inkscape:connector-curvature="0"
           d="m 608.83323,1441.9014 c 7.54708,44.8279 31.8306,74.4854 78.31269,91.5048 67.61031,24.7555 115.83606,-12.4304 137.49713,-71.5894 l 74.78233,-204.2397 -69.01893,-25.2713 -72.71937,198.6055 c -14.95645,40.8479 -32.74462,48.7113 -57.62897,39.5999 -15.49403,-5.6731 -27.84743,-21.378 -31.55163,-46.1627 l -59.67325,17.5529"
           style="font-size:500px;font-weight:bold;letter-spacing:-41.23999786000000256px;fill:#000000;fill-opacity:1;stroke:#ffffff;stroke-width:7;stroke-linecap:round;stroke-linejoin:round;stroke-miterlimit:4;stroke-dasharray:none;-inkscape-font-specification:Source Sans Pro Bold"
           id="path8268" />
        <path
           inkscape:connector-curvature="0"
           d="m 819.4709,1577.6241 182.2492,102.3046 30.3487,-54.0643 -118.15675,-66.3267 36.71218,-65.4004 96.79267,54.334 30.104,-53.6283 -96.79268,-54.3341 32.06198,-57.1163 113.7967,63.8792 30.3488,-54.0644 -177.8892,-99.8571 -159.5756,284.2738"
           style="font-size:500px;font-weight:bold;letter-spacing:-41.23999786000000256px;fill:#000000;fill-opacity:1;stroke:#ffffff;stroke-width:7;stroke-linecap:round;stroke-linejoin:round;stroke-miterlimit:4;stroke-dasharray:none;-inkscape-font-specification:Source Sans Pro Bold"
           id="path8270" />
        <path
           inkscape:connector-curvature="0"
           d="m 1112.0623,1559.7573 c -69.4307,84.6736 -52.5337,172.8879 12.808,226.4668 31.3176,25.6798 69.6177,35.7473 110.4693,28.5091 l -3.1015,-60.0906 c -23.4686,3.3872 -45.8393,-0.085 -66.3311,-16.8874 -37.1172,-30.4354 -36.36,-80.2494 6.1227,-132.0588 41.5316,-50.6494 94.0287,-58.6843 129.2127,-29.8342 17.3987,14.2666 23.7474,31.7579 26.9954,53.8192 l 60.1679,-9.5042 c -2.7455,-31.3482 -16.3555,-68.3722 -47.6731,-94.052 -64.9551,-53.2619 -160.1908,-49.8815 -228.6703,33.6321 m 294.614,-81.7224 -39.8309,6.782 -1.5466,-1.2681 -1.1526,-40.3878 -43.6901,-35.825 -0.927,76.8319 55.6758,45.6531 75.1615,-15.9611 -43.6901,-35.825"
           style="font-size:500px;font-weight:bold;letter-spacing:-41.23999786000000256px;fill:#000000;fill-opacity:1;stroke:#ffffff;stroke-width:7;stroke-linecap:round;stroke-linejoin:round;stroke-miterlimit:4;stroke-dasharray:none;-inkscape-font-specification:Source Sans Pro Bold"
           id="path8272" />
        <path
           inkscape:connector-curvature="0"
           d="m 1214.6261,1854.1587 44.4711,54.0585 89.1965,-73.3774 c 29.7322,-24.4591 59.5139,-56.7284 85.4095,-81.916 l 1.2706,1.5445 -34.5011,69.8189 -71.4923,168.879 47.9653,58.3059 251.7581,-207.1083 -44.4712,-54.0585 -88.8103,73.0597 c -29.7321,24.4591 -61.4445,58.3166 -86.1817,82.5513 l -1.2706,-1.5446 35.2733,-70.4541 71.1062,-168.5614 -47.9653,-58.3059 -251.7581,207.1084"
           style="font-size:500px;font-weight:bold;letter-spacing:-41.23999786000000256px;fill:#000000;fill-opacity:1;stroke:#ffffff;stroke-width:7;stroke-linecap:round;stroke-linejoin:round;stroke-miterlimit:4;stroke-dasharray:none;-inkscape-font-specification:Source Sans Pro Bold"
           id="path8274" />
        <path
           inkscape:connector-curvature="0"
           d="m 1844.1568,2048.8627 -37.1132,-68.6048 -72.0432,-7.0731 28.0728,51.8934 81.0836,23.7845 m -297.7113,29.7358 30.1929,-7.238 c 32.8676,-7.5478 70.3348,-18.1525 104.4857,-27.5315 l 0.9516,1.7591 c -25.8602,23.6536 -55.4406,49.8883 -79.7436,73.268 l -22.8178,20.871 -33.0688,-61.1286 m -69.0169,156.1471 37.1132,68.6047 238.2001,-244.8279 -42.1092,-77.84 -335.2653,65.4001 35.6857,65.9661 77.6812,-19.2843 47.3431,87.5151 -58.6488,54.4662"
           style="font-size:500px;font-weight:bold;letter-spacing:-41.23999786000000256px;fill:#000000;fill-opacity:1;stroke:#ffffff;stroke-width:7;stroke-linecap:round;stroke-linejoin:round;stroke-miterlimit:4;stroke-dasharray:none;-inkscape-font-specification:Source Sans Pro Bold"
           id="path8276" />
      </g>
      <g
         id="g8278"
         transform="matrix(1.0304568,0,0,1,-16.468129,0)"
         style="fill:#000000;fill-opacity:1;stroke:none">
        <path
           sodipodi:nodetypes="sccsccs"
           inkscape:connector-curvature="0"
           id="path8280"
           transform="translate(-2308.5715,-2145.9236)"
           d="m 2559.9375,3064.0625 c -824.6312,0 -1523.3239,529.0745 -1762.75,1260.1563 l 91.25,62.6874 c 215.9472,-705.0913 882.5808,-1218.7812 1671.5,-1218.7812 792.2595,0 1461.2175,518.0369 1674.2481,1227.7357 l 93.4751,-56.2679 C 4093.0406,3600.5636 3390.3396,3064.0625 2559.9375,3064.0625 z"
           style="fill:#000000;fill-opacity:1;stroke:none" />
        <path
           sodipodi:nodetypes="sccsccs"
           inkscape:connector-curvature="0"
           id="path8282"
           transform="translate(-2308.5715,-2145.9236)"
           d="m 2559.9375,3694.7812 c -614.3238,0 -1121.5749,449.8343 -1198.3297,1032.1248 l 109.3035,67.0831 c 40.2879,-555.6898 512.4539,-994.2391 1089.0262,-994.2391 564.2031,0 1028.4589,419.9348 1085.8711,958.6406 l 112.9897,-27.3997 C 3683.8829,4146.7207 3175.6971,3694.7812 2559.9375,3694.7812 z"
           style="fill:#000000;fill-opacity:1;stroke:none" />
      </g>
    </g>
    <g
       transform="matrix(-1.0419344,0.35698139,-0.35698139,-1.0419344,867.78967,741.13107)"
       style="font-size:16px;font-style:normal;font-variant:normal;font-weight:normal;font-stretch:normal;line-height:125%;letter-spacing:0px;word-spacing:0px;fill:#000000;fill-opacity:1;stroke:none;font-family:Source Sans Pro;-inkscape-font-specification:Source Sans Pro"
       id="text8774">
      <path
         d="m 349.02661,371.76245 c -0.5058,-0.9475 -1.39529,-1.64921 -2.35027,-1.97237 -1.75268,-0.59311 -3.12122,0.12081 -3.53184,1.3342 -0.34978,1.03363 0.0105,1.81919 0.77638,2.47907 l 0.81448,0.70136 c 0.54172,0.47131 0.9716,0.79209 0.81952,1.24149 -0.14067,0.4157 -0.58384,0.54121 -1.15683,0.34731 -0.58422,-0.1977 -0.96139,-0.56325 -1.31903,-1.09749 l -1.19622,0.75971 c 0.41626,0.84208 1.18977,1.47949 2.0324,1.76464 1.52797,0.51707 2.93351,-0.0842 3.34413,-1.29755 0.36119,-1.06734 -0.14495,-1.93983 -0.79505,-2.49791 l -0.81811,-0.72763 c -0.54915,-0.48635 -0.91543,-0.77309 -0.75954,-1.23372 0.14827,-0.43817 0.57657,-0.59375 1.26191,-0.36183 0.6067,0.2053 1.17435,0.748 1.55032,1.3761 l 1.32775,-0.81538"
         style="font-size:11.86096191000000033px;font-weight:bold;fill:#000000;fill-opacity:1;-inkscape-font-specification:Source Sans Pro Bold"
         id="path9289"
         inkscape:connector-curvature="0" />
      <path
         d="m 341.51576,367.86443 -1.57354,-0.77812 -2.77601,5.61371 -1.90314,-0.94111 -0.65194,1.31837 5.37981,2.66035 0.65194,-1.31838 -1.90313,-0.94111 2.77601,-5.61371"
         style="font-size:11.86096191000000033px;font-weight:bold;fill:#000000;fill-opacity:1;-inkscape-font-specification:Source Sans Pro Bold"
         id="path9291"
         inkscape:connector-curvature="0" />
      <path
         d="m 329.29023,370.31582 -1.74495,0.52682 1.10403,0.75993 0.92805,-0.23956 0.0391,0.0269 0.10759,0.95241 1.10403,0.75993 -0.13093,-1.81802 -1.4069,-0.96841 m 2.66676,-0.56906 -0.74253,-0.5111 c -0.7523,-0.51783 -1.0147,-1.01523 -0.5843,-1.64052 0.43041,-0.62529 1.06268,-0.66525 1.81498,-0.14743 l 0.74254,0.51111 -1.23069,1.78794 m -0.0268,-7.72203 -0.30924,3.54532 c -0.89239,-0.16788 -1.75205,0.11875 -2.39765,1.05669 -1.04238,1.51437 -0.26115,2.74327 1.08713,3.67133 l 2.29599,1.58038 4.38472,-6.37015 -1.43621,-0.98859 -1.58038,2.296 -0.79139,-0.54473 0.35911,-3.13662 -1.61208,-1.10963"
         style="font-size:11.86096191000000033px;font-weight:bold;fill:#000000;fill-opacity:1;-inkscape-font-specification:Source Sans Pro Bold"
         id="path9293"
         inkscape:connector-curvature="0" />
      <path
         d="m 331.07001,361.23962 -3.6435,-3.36237 -0.99744,1.08085 2.36217,2.17991 -1.2066,1.30747 -1.93506,-1.78575 -0.9894,1.07213 1.93506,1.78575 -1.05376,1.14186 -2.27501,-2.09947 -0.99744,1.08085 3.55633,3.28193 5.24465,-5.68316"
         style="font-size:11.86096191000000033px;font-weight:bold;fill:#000000;fill-opacity:1;-inkscape-font-specification:Source Sans Pro Bold"
         id="path9295"
         inkscape:connector-curvature="0" />
      <path
         d="m 326.34748,356.7507 -1.43461,-1.76861 c -1.42714,-1.7594 -3.35077,-2.15393 -5.41415,-0.48021 -2.06338,1.67371 -2.01892,3.59251 -0.532,5.42561 l 1.37484,1.69492 6.00592,-4.87171 m -2.19455,-0.46493 -3.81357,3.09338 -0.20922,-0.25792 c -0.82938,-1.02248 -0.94015,-2.06279 0.49684,-3.22841 1.437,-1.16562 2.48735,-0.88745 3.31674,0.13503 l 0.20921,0.25792"
         style="font-size:11.86096191000000033px;font-weight:bold;fill:#000000;fill-opacity:1;-inkscape-font-specification:Source Sans Pro Bold"
         id="path9297"
         inkscape:connector-curvature="0" />
      <path
         d="m 321.70286,350.81656 -0.83117,-1.43755 -2.37195,1.37143 c -0.79064,0.45714 -1.61273,1.09687 -2.31642,1.58594 l -0.0238,-0.0411 1.07812,-1.5002 2.32789,-3.67509 -0.89648,-1.55049 -6.69485,3.87086 0.83116,1.43755 2.36169,-1.36549 c 0.79065,-0.45714 1.66408,-1.12656 2.33696,-1.59781 l 0.0238,0.0411 -1.09866,1.51208 -2.31762,3.66915 0.89648,1.55049 6.69485,-3.87086"
         style="font-size:11.86096191000000033px;font-weight:bold;fill:#000000;fill-opacity:1;-inkscape-font-specification:Source Sans Pro Bold"
         id="path9299"
         inkscape:connector-curvature="0" />
      <path
         d="m 317.96489,343.88774 -0.69094,-1.60082 -7.10021,3.06458 0.69094,1.60081 7.10021,-3.06457 m -10.06076,1.2936 0.73324,1.69883 1.68751,0.31805 -0.54993,-1.27412 -1.87082,-0.74276"
         style="font-size:11.86096191000000033px;font-weight:bold;fill:#000000;fill-opacity:1;-inkscape-font-specification:Source Sans Pro Bold"
         id="path9301"
         inkscape:connector-curvature="0" />
      <path
         d="m 315.75276,338.25614 -0.4255,-1.69085 -2.54202,0.63971 -0.26341,-1.04671 c -0.39945,-1.58732 -1.52028,-2.73627 -3.28014,-2.29339 -1.81736,0.45734 -2.0855,1.91913 -1.67736,3.54096 l 0.68891,2.73755 7.49952,-1.88727 m -4.31329,-0.71247 -2.26596,0.57023 -0.23736,-0.94319 c -0.22578,-0.89718 -0.0598,-1.45264 0.72237,-1.64948 0.78215,-0.19683 1.30913,0.14756 1.54359,1.07925 l 0.23736,0.94319"
         style="font-size:11.86096191000000033px;font-weight:bold;fill:#000000;fill-opacity:1;-inkscape-font-specification:Source Sans Pro Bold"
         id="path9303"
         inkscape:connector-curvature="0" />
      <path
         d="m 307.64214,330.13716 -0.0875,-0.89717 c -0.0887,-0.90898 0.12263,-1.43013 0.87814,-1.50385 0.75551,-0.0737 1.19345,0.38406 1.28215,1.29304 l 0.0876,0.89717 -2.16029,0.21081 m 5.88824,-4.99591 -2.91059,2.04778 c -0.44658,-0.79063 -1.21967,-1.26338 -2.35294,-1.1528 -1.82976,0.17855 -2.26622,1.5678 -2.10726,3.19687 l 0.27071,2.77415 7.69679,-0.75107 -0.16934,-1.73531 -2.77415,0.2707 -0.0933,-0.95619 2.63015,-1.74632 -0.19007,-1.94781"
         style="font-size:11.86096191000000033px;font-weight:bold;fill:#000000;fill-opacity:1;-inkscape-font-specification:Source Sans Pro Bold"
         id="path9305"
         inkscape:connector-curvature="0" />
      <path
         d="m 309.96024,323.80989 c 2.59295,0.15444 3.78263,-0.86785 3.90181,-2.8688 0.11847,-1.98912 -0.94357,-3.10987 -3.53652,-3.26431 l -4.14399,-0.24682 -0.10014,1.68128 4.32159,0.2574 c 1.51552,0.0903 2.00686,0.61857 1.95538,1.48289 -0.0515,0.86431 -0.60064,1.30689 -2.11616,1.21662 l -4.32159,-0.25739 -0.10437,1.75231 4.14399,0.24682 m -4.49415,-3.34511 c 0.0473,-0.79327 -0.37023,-1.36471 -1.08063,-1.40702 -0.69856,-0.0416 -1.19275,0.47553 -1.24,1.26881 -0.0473,0.79327 0.38278,1.35358 1.08133,1.39518 0.7104,0.0423 1.19206,-0.46369 1.2393,-1.25697 m -0.6512,-0.0388 c -0.0155,0.26048 -0.21835,0.47416 -0.53803,0.45512 -0.30784,-0.0183 -0.49572,-0.25529 -0.4802,-0.51577 0.0162,-0.27232 0.23019,-0.47345 0.53803,-0.45511 0.31968,0.019 0.49642,0.24344 0.4802,0.51576"
         style="font-size:11.86096191000000033px;font-weight:bold;fill:#000000;fill-opacity:1;-inkscape-font-specification:Source Sans Pro Bold"
         id="path9307"
         inkscape:connector-curvature="0" />
      <path
         d="m 314.12012,316.10848 0.36876,-1.55819 -2.75857,-0.65284 c -0.73869,-0.17483 -1.86525,-0.30736 -2.61152,-0.39865 l 0.0109,-0.0462 1.88491,-0.18773 3.19332,-0.46312 0.16116,-0.68099 -2.64701,-1.8453 -1.59535,-1.03574 0.0109,-0.0462 c 0.70804,0.25288 1.77176,0.65089 2.51046,0.82571 l 2.75857,0.65284 0.37422,-1.58127 -7.52547,-1.78098 -0.42339,1.78903 3.0923,2.02381 1.20927,0.76155 -0.0109,0.0462 -1.42233,0.13875 -3.67959,0.45774 -0.42612,1.80058 7.52547,1.78098"
         style="font-size:11.86096191000000033px;font-weight:bold;fill:#000000;fill-opacity:1;-inkscape-font-specification:Source Sans Pro Bold"
         id="path9309"
         inkscape:connector-curvature="0" />
      <path
         d="m 316.94586,306.14823 0.65496,-1.61587 -2.55021,-1.03369 -3.73902,-4.03681 -0.68616,1.69282 1.38597,1.31687 c 0.45842,0.41619 0.87288,0.81455 1.33784,1.24618 l -0.0178,0.044 c -0.62981,-0.0249 -1.20021,-0.0386 -1.81903,-0.059 l -1.90727,-0.0308 -0.70397,1.73679 5.4945,-0.29416 2.55022,1.03369"
         style="font-size:11.86096191000000033px;font-weight:bold;fill:#000000;fill-opacity:1;-inkscape-font-specification:Source Sans Pro Bold"
         id="path9311"
         inkscape:connector-curvature="0" />
      <path
         d="m 317.70104,301.80815 c 1.02553,-0.3192 1.88154,-1.06138 2.37801,-1.93884 0.91116,-1.61041 0.46645,-3.08854 -0.64845,-3.71934 -0.94973,-0.53735 -1.78889,-0.33076 -2.58066,0.29787 l -0.84161,0.66855 c -0.56452,0.44376 -0.9602,0.80589 -1.37312,0.57225 -0.38196,-0.2161 -0.42216,-0.67494 -0.12428,-1.20142 0.30372,-0.53681 0.73349,-0.83876 1.32531,-1.08991 l -0.522,-1.31743 c -0.90518,0.25101 -1.67629,0.89132 -2.11435,1.66555 -0.79435,1.40395 -0.46728,2.89729 0.64762,3.52809 0.9807,0.55488 1.93261,0.22128 2.60267,-0.31267 l 0.8681,-0.6672 c 0.58068,-0.44824 0.93099,-0.75427 1.35424,-0.5148 0.4026,0.2278 0.47514,0.67767 0.11885,1.30738 -0.3154,0.55745 -0.9549,1.0133 -1.64234,1.26486 l 0.55201,1.45706"
         style="font-size:11.86096191000000033px;font-weight:bold;fill:#000000;fill-opacity:1;-inkscape-font-specification:Source Sans Pro Bold"
         id="path9313"
         inkscape:connector-curvature="0" />
      <path
         d="m 322.16949,296.17913 2.87752,-3.84647 -1.17768,-0.88102 -1.83309,2.45034 -5.01466,-3.75143 -1.04443,1.39613 6.19234,4.63245"
         style="font-size:11.86096191000000033px;font-weight:bold;fill:#000000;fill-opacity:1;-inkscape-font-specification:Source Sans Pro Bold"
         id="path9315"
         inkscape:connector-curvature="0" />
      <path
         d="m 327.96125,289.49495 c 1.47337,-1.47883 1.40244,-3.55867 -0.38728,-5.34179 -1.78131,-1.77475 -3.81939,-1.79615 -5.29277,-0.31732 -1.47338,1.47883 -1.45286,3.50844 0.33686,5.29156 1.78972,1.78312 3.86981,1.84638 5.34319,0.36755 m -1.06711,-1.06317 c -0.74506,0.74781 -1.91127,0.52352 -3.01199,-0.57315 -1.09231,-1.08829 -1.2789,-2.2118 -0.53384,-2.95961 0.74506,-0.74782 1.86925,-0.56538 2.96157,0.52291 1.10072,1.09666 1.32932,2.26203 0.58426,3.00985"
         style="font-size:11.86096191000000033px;font-weight:bold;fill:#000000;fill-opacity:1;-inkscape-font-specification:Source Sans Pro Bold"
         id="path9317"
         inkscape:connector-curvature="0" />
      <path
         d="m 332.4949,285.2972 1.68406,-1.25356 -2.7528,-7.59152 -1.42716,1.06233 1.42039,3.43772 c 0.32206,0.81008 0.65629,1.53719 0.98544,2.35679 l -0.0381,0.0283 c -0.70021,-0.54339 -1.29133,-1.07928 -1.98445,-1.61316 l -2.89513,-2.33997 -1.48425,1.10484 6.49196,4.8082"
         style="font-size:11.86096191000000033px;font-weight:bold;fill:#000000;fill-opacity:1;-inkscape-font-specification:Source Sans Pro Bold"
         id="path9319"
         inkscape:connector-curvature="0" />
      <path
         d="m 335.7153,271.72243 -1.61899,0.89583 -0.15153,1.71052 1.22462,-0.67762 0.5459,-1.92873 m 0.7725,7.05526 -0.1785,-0.71457 c -0.18645,-0.77795 -0.44645,-1.66431 -0.67663,-2.47228 l 0.0415,-0.023 c 0.56692,0.60809 1.1959,1.30384 1.75597,1.87506 l 0.50022,0.53655 -1.44257,0.79821 m 3.71951,1.60192 1.619,-0.89583 -5.86126,-5.59509 -1.83693,1.01642 1.62696,7.93803 1.55673,-0.86137 -0.47496,-1.83832 2.06525,-1.14276 1.30521,1.37892"
         style="font-size:11.86096191000000033px;font-weight:bold;fill:#000000;fill-opacity:1;-inkscape-font-specification:Source Sans Pro Bold"
         id="path9321"
         inkscape:connector-curvature="0" />
      <path
         d="m 344.13616,277.47774 c 0.97347,0.45381 2.10611,0.48064 3.06376,0.16548 1.75758,-0.57842 2.42303,-1.97118 2.02259,-3.18796 -0.34112,-1.03652 -1.10096,-1.44826 -2.10966,-1.51587 l -1.07245,-0.0716 c -0.71621,-0.0515 -1.25258,-0.0498 -1.40089,-0.50045 -0.13719,-0.41686 0.14177,-0.78337 0.71636,-0.97247 0.58586,-0.1928 1.10697,-0.12705 1.71379,0.0853 l 0.50016,-1.32587 c -0.83856,-0.42329 -1.83985,-0.46837 -2.68484,-0.19029 -1.53225,0.50426 -2.29496,1.82914 -1.89452,3.04592 0.35224,1.07032 1.28094,1.46394 2.1359,1.51972 l 1.09114,0.0904 c 0.73118,0.0591 1.19624,0.0683 1.34826,0.53026 0.1446,0.43939 -0.1044,0.82102 -0.79166,1.0472 -0.60839,0.20022 -1.38821,0.10722 -2.06604,-0.16917 l -0.5719,1.44937 m 0.77138,-9.49406 -0.38222,0.88748 -0.0451,0.0148 -0.82331,-0.49074 -1.26185,0.41527 1.52653,0.99603 1.61111,-0.53021 0.63665,-1.70793 -1.26185,0.41527"
         style="font-size:11.86096191000000033px;font-weight:bold;fill:#000000;fill-opacity:1;-inkscape-font-specification:Source Sans Pro Bold"
         id="path9323"
         inkscape:connector-curvature="0" />
      <path
         d="m 351.2235,276.29007 1.71581,-0.30982 -0.36884,-2.04264 0.67632,-1.3274 2.43549,2.87474 1.87922,-0.33934 -3.54582,-4.08441 1.75143,-3.44998 -1.8909,0.34144 -1.70166,3.52536 -0.0467,0.008 -0.56274,-3.11648 -1.71582,0.30983 1.3742,7.61027"
         style="font-size:11.86096191000000033px;font-weight:bold;fill:#000000;fill-opacity:1;-inkscape-font-specification:Source Sans Pro Bold"
         id="path9325"
         inkscape:connector-curvature="0" />
      <path
         d="m 361.23309,275.21924 c 2.08697,-0.0482 3.47483,-1.59893 3.41644,-4.12464 -0.0581,-2.51385 -1.51475,-3.93947 -3.60172,-3.89123 -2.08697,0.0482 -3.47647,1.52778 -3.41809,4.05349 0.0584,2.52571 1.5164,4.01062 3.60337,3.96238 m -0.0348,-1.50594 c -1.05534,0.0244 -1.74213,-0.94446 -1.77803,-2.49783 -0.0356,-1.54151 0.60702,-2.48177 1.66237,-2.50616 1.05534,-0.0244 1.74076,0.88517 1.77639,2.42668 0.0359,1.55337 -0.60538,2.55291 -1.66073,2.57731"
         style="font-size:11.86096191000000033px;font-weight:bold;fill:#000000;fill-opacity:1;-inkscape-font-specification:Source Sans Pro Bold"
         id="path9327"
         inkscape:connector-curvature="0" />
      <path
         d="m 366.19569,275.17134 4.76734,0.5898 0.18059,-1.45963 -3.03698,-0.37573 0.76892,-6.2152 -1.73036,-0.21408 -0.94951,7.67484"
         style="font-size:11.86096191000000033px;font-weight:bold;fill:#000000;fill-opacity:1;-inkscape-font-specification:Source Sans Pro Bold"
         id="path9329"
         inkscape:connector-curvature="0" />
      <path
         d="m 374.58712,273.32266 0.36247,-0.64116 c 0.40032,-0.6926 0.82195,-1.51448 1.21123,-2.25896 l 0.0459,0.0119 c -0.007,0.83134 -0.0302,1.76898 -0.0173,2.56885 l -0.007,0.73353 -1.59581,-0.41417 m 1.59495,3.72251 1.79098,0.46482 -0.39934,-8.0932 -2.03206,-0.52739 -4.28476,6.87751 1.72209,0.44694 0.92107,-1.6603 2.28464,0.59294 -0.003,1.89868"
         style="font-size:11.86096191000000033px;font-weight:bold;fill:#000000;fill-opacity:1;-inkscape-font-specification:Source Sans Pro Bold"
         id="path9331"
         inkscape:connector-curvature="0" />
      <path
         d="m 381.06498,278.73579 4.48564,2.11179 0.62646,-1.33067 -2.90815,-1.36913 0.75782,-1.60968 2.38232,1.12158 0.62141,-1.31994 -2.38232,-1.12157 0.66183,-1.40579 2.80084,1.31861 0.62646,-1.33067 -4.37832,-2.06127 -3.29399,6.99674"
         style="font-size:11.86096191000000033px;font-weight:bold;fill:#000000;fill-opacity:1;-inkscape-font-specification:Source Sans Pro Bold"
         id="path9333"
         inkscape:connector-curvature="0" />
      <path
         d="m 386.89915,281.62741 4.04264,2.59472 0.79443,-1.23775 -2.57531,-1.65293 3.38274,-5.27039 -1.46732,-0.94179 -4.17718,6.50814"
         style="font-size:11.86096191000000033px;font-weight:bold;fill:#000000;fill-opacity:1;-inkscape-font-specification:Source Sans Pro Bold"
         id="path9335"
         inkscape:connector-curvature="0" />
      <path
         d="m 392.00889,285.03516 3.788,3.19869 0.94889,-1.12371 -2.45586,-2.0738 1.14786,-1.35933 2.01181,1.69883 0.94124,-1.11465 -2.01181,-1.69883 1.00247,-1.18715 2.36523,1.99727 0.9489,-1.12371 -3.69738,-3.12217 -4.98935,5.90856"
         style="font-size:11.86096191000000033px;font-weight:bold;fill:#000000;fill-opacity:1;-inkscape-font-specification:Source Sans Pro Bold"
         id="path9337"
         inkscape:connector-curvature="0" />
      <path
         d="m 396.91287,289.32228 1.16399,1.29812 1.54539,-1.3857 1.48487,-0.12068 -1.16946,3.58162 1.27484,1.42176 1.61671,-5.16154 3.85592,-0.31909 -1.28277,-1.43059 -3.89397,0.40101 -0.0317,-0.0353 2.35782,-2.11418 -1.16398,-1.29813 -5.75769,5.16273"
         style="font-size:11.86096191000000033px;font-weight:bold;fill:#000000;fill-opacity:1;-inkscape-font-specification:Source Sans Pro Bold"
         id="path9339"
         inkscape:connector-curvature="0" />
      <path
         d="m 402.30498,295.85828 0.97983,1.45651 5.19622,-3.49561 1.18507,1.7616 1.22032,-0.82094 -3.34996,-4.97971 -1.22032,0.82094 1.18506,1.7616 -5.19622,3.49561"
         style="font-size:11.86096191000000033px;font-weight:bold;fill:#000000;fill-opacity:1;-inkscape-font-specification:Source Sans Pro Bold"
         id="path9341"
         inkscape:connector-curvature="0" />
      <path
         d="m 411.53619,298.95612 0.39242,0.81154 c 0.39757,0.82221 0.37951,1.38429 -0.30389,1.71474 -0.6834,0.33046 -1.25264,0.0524 -1.65021,-0.76985 l -0.39241,-0.81154 1.95409,-0.94489 m -3.7972,6.72397 2.02282,-2.92799 c 0.69245,0.5874 1.58133,0.76363 2.60643,0.26795 1.65511,-0.80031 1.58421,-2.25478 0.87167,-3.72836 l -1.21338,-2.50936 -6.96214,3.36649 0.759,1.56968 2.50936,-1.21338 0.41823,0.86493 -1.86394,2.54815 0.85195,1.76189"
         style="font-size:11.86096191000000033px;font-weight:bold;fill:#000000;fill-opacity:1;-inkscape-font-specification:Source Sans Pro Bold"
         id="path9343"
         inkscape:connector-curvature="0" />
      <path
         d="m 408.91457,309.82432 c 0.60731,1.99723 2.47392,2.91731 4.89103,2.18233 2.40576,-0.73154 3.38749,-2.51772 2.78018,-4.51495 -0.60731,-1.99724 -2.40584,-2.93801 -4.82294,-2.20303 -2.41711,0.73498 -3.45558,2.53841 -2.84827,4.53565 m 1.44119,-0.43823 c -0.3071,-1.00997 0.44154,-1.93185 1.92812,-2.38388 1.47523,-0.44858 2.5536,-0.0822 2.86071,0.92772 0.3071,1.00996 -0.3848,1.9146 -1.86003,2.36318 -1.48658,0.45203 -2.62169,0.10294 -2.9288,-0.90702"
         style="font-size:11.86096191000000033px;font-weight:bold;fill:#000000;fill-opacity:1;-inkscape-font-specification:Source Sans Pro Bold"
         id="path9345"
         inkscape:connector-curvature="0" />
      <path
         d="m 410.47208,315.85469 0.25577,1.73669 6.19576,-0.91247 0.30934,2.10045 1.45507,-0.21429 -0.87446,-5.9376 -1.45506,0.21429 0.30934,2.10046 -6.19576,0.91247"
         style="font-size:11.86096191000000033px;font-weight:bold;fill:#000000;fill-opacity:1;-inkscape-font-specification:Source Sans Pro Bold"
         id="path9347"
         inkscape:connector-curvature="0" />
      <path
         d="m 411.08917,320.91617 0.0532,4.9576 1.47068,-0.0158 -0.0345,-3.21413 1.77904,-0.0191 0.0282,2.63298 1.45881,-0.0156 -0.0282,-2.63298 1.5537,-0.0167 0.0332,3.09553 1.47067,-0.0158 -0.0519,-4.839 -7.7329,0.0829"
         style="font-size:11.86096191000000033px;font-weight:bold;fill:#000000;fill-opacity:1;-inkscape-font-specification:Source Sans Pro Bold"
         id="path9349"
         inkscape:connector-curvature="0" />
      <path
         d="m 414.88009,327.55046 c -2.57646,-0.33033 -4.13755,1.11973 -4.39247,3.10795 -0.12218,0.95294 0.15746,1.84977 0.81718,2.58009 l 1.16923,-0.81869 c -0.3635,-0.42926 -0.57526,-0.92278 -0.49531,-1.5463 0.1448,-1.12941 1.15597,-1.74117 2.73243,-1.53904 1.54117,0.19759 2.36348,1.15205 2.22622,2.22263 -0.0679,0.52941 -0.33967,0.87722 -0.74239,1.2202 l 0.94841,1.0902 c 0.59577,-0.44977 1.16893,-1.18943 1.29111,-2.14237 0.25341,-1.97646 -1.01325,-3.84886 -3.55441,-4.17467"
         style="font-size:11.86096191000000033px;font-weight:bold;fill:#000000;fill-opacity:1;-inkscape-font-specification:Source Sans Pro Bold"
         id="path9351"
         inkscape:connector-curvature="0" />
      <path
         d="m 410.06716,334.27121 -0.48007,1.67617 3.10147,0.8883 -0.73481,2.56556 -3.10148,-0.8883 -0.48334,1.68756 7.43442,2.12933 0.48334,-1.68757 -2.86202,-0.81972 0.73481,-2.56556 2.86203,0.81972 0.48008,-1.67616 -7.43443,-2.12933"
         style="font-size:11.86096191000000033px;font-weight:bold;fill:#000000;fill-opacity:1;-inkscape-font-specification:Source Sans Pro Bold"
         id="path9353"
         inkscape:connector-curvature="0" />
      <path
         d="m 407.72065,341.91805 -0.70866,1.50172 2.47784,1.1693 c 0.82595,0.38976 1.8199,0.70142 2.62259,1.00152 l -0.0202,0.0429 -1.84713,-0.0323 -4.34667,0.17841 -0.76434,1.61972 6.99374,3.30034 0.70866,-1.50172 -2.46711,-1.16423 c -0.82595,-0.38977 -1.87354,-0.72674 -2.64405,-1.01165 l 0.0202,-0.0429 1.86859,0.0424 4.33594,-0.18347 0.76434,-1.61972 -6.99374,-3.30034"
         style="font-size:11.86096191000000033px;font-weight:bold;fill:#000000;fill-opacity:1;-inkscape-font-specification:Source Sans Pro Bold"
         id="path9355"
         inkscape:connector-curvature="0" />
      <path
         d="m 404.15019,348.93459 -0.92475,1.47813 6.55604,4.1016 0.92474,-1.47813 -6.55603,-4.1016"
         style="font-size:11.86096191000000033px;font-weight:bold;fill:#000000;fill-opacity:1;-inkscape-font-specification:Source Sans Pro Bold"
         id="path9357"
         inkscape:connector-curvature="0" />
      <path
         d="m 405.47559,354.03281 c -2.04045,-1.60743 -4.12482,-1.16575 -5.36525,0.40884 -0.59453,0.75469 -0.81554,1.66774 -0.62491,2.63327 l 1.42375,-0.10144 c -0.0912,-0.55504 -0.0193,-1.08722 0.36975,-1.58103 0.70463,-0.89445 1.88644,-0.8996 3.13493,0.0839 1.22054,0.96152 1.43547,2.20289 0.76754,3.05075 -0.33029,0.41927 -0.74219,0.57796 -1.26392,0.66523 l 0.25333,1.42261 c 0.74222,-0.0797 1.61402,-0.41963 2.20855,-1.17432 1.23309,-1.56527 1.10873,-3.82245 -0.90377,-5.40785"
         style="font-size:11.86096191000000033px;font-weight:bold;fill:#000000;fill-opacity:1;-inkscape-font-specification:Source Sans Pro Bold"
         id="path9359"
         inkscape:connector-curvature="0" />
      <path
         d="m 397.87634,357.30682 -1.26519,1.19971 1.42822,1.50618 0.16201,1.48093 -3.61282,-1.06922 -1.38569,1.31396 5.20458,1.47228 0.4264,3.84553 1.39429,-1.32213 -0.50934,-3.88128 0.0344,-0.0326 2.17905,2.29801 1.2652,-1.19971 -5.32114,-5.61161"
         style="font-size:11.86096191000000033px;font-weight:bold;fill:#000000;fill-opacity:1;-inkscape-font-specification:Source Sans Pro Bold"
         id="path9361"
         inkscape:connector-curvature="0" />
      <path
         d="m 394.65345,372.60771 1.51007,-1.06926 -0.0384,-1.71679 -1.14224,0.8088 -0.3294,1.97725 m -1.54749,-6.92666 0.25638,0.69046 c 0.27129,0.75257 0.62765,1.60477 0.94572,2.38236 l -0.0387,0.0274 c -0.63065,-0.54172 -1.33267,-1.1637 -1.95244,-1.66952 l -0.55645,-0.47798 1.34551,-0.95274 m -3.87376,-1.18104 -1.51007,1.06926 6.44369,4.91305 1.71335,-1.2132 -2.49428,-7.7096 -1.45199,1.02814 0.67522,1.77457 -1.92631,1.364 -1.44961,-1.22622"
         style="font-size:11.86096191000000033px;font-weight:bold;fill:#000000;fill-opacity:1;-inkscape-font-specification:Source Sans Pro Bold"
         id="path9363"
         inkscape:connector-curvature="0" />
      <path
         d="m 385.97095,367.96466 c -0.87867,-0.62515 -1.7835,-0.71509 -2.84856,-0.22065 -1.54918,0.71918 -1.73405,2.15191 -1.10476,3.50744 l 2.17253,4.67982 1.58146,-0.73417 -2.1126,-4.55072 c -0.43451,-0.93596 -0.26813,-1.36627 0.30206,-1.63097 0.35502,-0.16482 0.82568,-0.1087 1.30363,0.2448 l 0.70624,-1.29555"
         style="font-size:11.86096191000000033px;font-weight:bold;fill:#000000;fill-opacity:1;-inkscape-font-specification:Source Sans Pro Bold"
         id="path9365"
         inkscape:connector-curvature="0" />
      <path
         d="m 379.25617,369.58301 -4.72726,1.49451 0.44334,1.40235 3.06481,-0.96893 0.53631,1.69639 -2.51066,0.79373 0.43977,1.39104 2.51066,-0.79374 0.46837,1.48152 -2.95171,0.93317 0.44335,1.40235 4.61417,-1.45876 -2.33115,-7.37363"
         style="font-size:11.86096191000000033px;font-weight:bold;fill:#000000;fill-opacity:1;-inkscape-font-specification:Source Sans Pro Bold"
         id="path9367"
         inkscape:connector-curvature="0" />
      <path
         d="m 374.01491,375.14301 c -0.43505,-2.56086 -2.27719,-3.63146 -4.25338,-3.29574 -0.94717,0.16091 -1.72354,0.68982 -2.22983,1.53378 l 1.12397,0.87981 c 0.30466,-0.47284 0.71501,-0.81927 1.33476,-0.92455 1.12257,-0.19071 2.00251,0.59821 2.26871,2.16513 0.26023,1.53184 -0.41307,2.59666 -1.47717,2.77744 -0.5262,0.0894 -0.93813,-0.0692 -1.38361,-0.35446 l -0.7664,1.22501 c 0.60391,0.43879 1.47852,0.77145 2.42569,0.61054 1.96449,-0.33374 3.38635,-2.09118 2.95726,-4.61696 m -3.12282,6.54597 0.49857,-0.81859 0.0468,-0.008 0.74093,0.60801 1.32135,-0.22448 -1.36095,-1.2125 -1.68385,0.28606 -0.88419,1.59392 1.32136,-0.22448"
         style="font-size:11.86096191000000033px;font-weight:bold;fill:#000000;fill-opacity:1;-inkscape-font-specification:Source Sans Pro Bold"
         id="path9369"
         inkscape:connector-curvature="0" />
      <path
         d="m 366.1831,372.49541 -1.66033,0.0259 0.0427,2.73954 c 0.0142,0.91319 0.17264,1.94275 0.25711,2.79552 l -0.0474,7.4e-4 -0.78526,-1.67222 -2.07622,-3.82291 -1.79079,0.0279 0.12056,7.7324 1.66034,-0.0259 -0.0425,-2.72769 c -0.0142,-0.91319 -0.17357,-2.00204 -0.25748,-2.81924 l 0.0474,-7.4e-4 0.78563,1.69594 2.07603,3.81105 1.79079,-0.0279 -0.12056,-7.73241"
         style="font-size:11.86096191000000033px;font-weight:bold;fill:#000000;fill-opacity:1;-inkscape-font-specification:Source Sans Pro Bold"
         id="path9371"
         inkscape:connector-curvature="0" />
      <path
         d="m 352.66242,381.50812 1.83335,0.24999 1.14423,-1.28047 -1.38676,-0.18909 -1.59082,1.21957 m 3.59934,-6.11705 -0.28418,0.6795 c -0.3157,0.73504 -0.63728,1.60097 -0.93589,2.38623 l -0.047,-0.006 c -0.0908,-0.82639 -0.17896,-1.76016 -0.28634,-2.55289 l -0.0801,-0.72917 1.63355,0.22274 m -2.02353,-3.50801 -1.83335,-0.24999 1.35262,7.98935 2.08014,0.28364 3.44228,-7.33553 -1.76283,-0.24038 -0.71847,1.7575 -2.33869,-0.3189 -0.2217,-1.88569"
         style="font-size:11.86096191000000033px;font-weight:bold;fill:#000000;fill-opacity:1;-inkscape-font-specification:Source Sans Pro Bold"
         id="path9373"
         inkscape:connector-curvature="0" />
    </g>
  </g>
</svg>
